<svg xmlns="http://www.w3.org/2000/svg" viewBox="0 0 24 24" fill="none" stroke="currentColor" stroke-width="1.6" stroke-linecap="round" stroke-linejoin="round">
  <path d="M22.54 6.42a2.78 2.78 0 0 0-1.95-1.96C18.88 4 12 4 12 4s-6.88 0-8.59.46a2.78 2.78 0 0 0-1.95 1.96A29.94 29.94 0 0 0 1 12a29.94 29.94 0 0 0 .46 5.58 2.78 2.78 0 0 0 1.95 1.96C5.12 20 12 20 12 20s6.88 0 8.59-.46a2.78 2.78 0 0 0 1.95-1.96A29.94 29.94 0 0 0 23 12a29.94 29.94 0 0 0-.46-5.58Z"/>
  <path d="M10 15.5 15.5 12 10 8.5v7z" fill="currentColor" stroke="none" />
</svg>
